# xmcd CD database file
#
# Track frame offsets:
#	150
#	35285
#	63372
#	93960
#	119445
#	152205
#	181547
#	208247
#	238762
#
# Disc length: 3557 seconds
#
# Revision: 0
# Processed by: cddbd v1.4PL0 Copyright (c) Steve Scherf et al.
# Submitted via: CDex 1.50beta10
#
DISCID=720de309
DTITLE=Dream Session'97~Euro American All Stars - Old Montmartre
DYEAR=1900
DGENRE=Jazz
TTITLE0=Ascenseur Pour Lechafaud
TTITLE1=Dear Old Stockholm
TTITLE2=Blues De Memphis
TTITLE3=Hash-A-By
TTITLE4=Wanna Be
TTITLE5=The Summer Knows
TTITLE6=Manha De Carnaval
TTITLE7=Star Dust
TTITLE8=Old Montmartre
EXTD=
EXTT0=
EXTT1=
EXTT2=
EXTT3=
EXTT4=
EXTT5=
EXTT6=
EXTT7=
EXTT8=
PLAYORDER=
